<svg class="h-full w-full" xmlns="http://www.w3.org/2000/svg" viewBox="0 0 7.9374996 7.9375002">
    <path fill="#4b5563"
          d="M 4.8011332,0.4212454 V 2.8218121 C 2.1752758,2.9345593 0.46719335,5.1071516 1.6666649e-8,7.5162546 H 0.05334524 C 1.0896642,5.8576766 2.9275713,5.1690336 4.8011332,5.1690336 v 2.347221 c 0.908214,-0.694565 1.6609247,-1.80672 2.415771,-2.667297 C 7.3949182,4.6459766 7.9375,4.2276376 7.9375,3.9441576 7.9375,3.6851626 7.3386922,3.2286981 7.1709724,3.0351971 6.4380525,2.1895363 5.6888626,1.1001362 4.8011332,0.4212454 m 0.4801134,1.0669192 1.5430301,1.7604155 0.5568787,0.6955775 -0.5568787,0.744762 -1.5430301,1.760416 h -0.053345 v -1.70707 c -1.6877586,0 -2.8720383,0.401535 -4.32102184,1.226957 C 1.6436681,4.1995236 3.3791974,3.2890114 5.2279012,3.1418876 Z"
    />
</svg>
