<svg class="h-full w-full" xmlns="http://www.w3.org/2000/svg" viewBox="0 0 12 12">
    <path fill="white"
          d="M11.86 2.3c-.1-.44-.32-.84-.63-1.17-.33-.36-.74-.65-1.19-.85C9.58.09 9.09-.01 8.59 0c-.49.01-.98.12-1.43.33C6.72.55 6 1 6 1S5.3.55 4.85.33A3.523 3.523 0 001.98.28c-.45.2-.86.48-1.19.85-.31.33-.53.73-.64 1.17C-.71 5.3 2.12 9.61 6 12c3.58-2.39 6.71-6.12 5.86-9.7zM8 4H5v1h2c.55 0 1 .45 1 1v1c0 .55-.45 1-1 1v1H5V8H4V7h3V6H5c-.55 0-1-.45-1-1V4c0-.55.45-1 1-1V2h2v1h1v1z"></path>
</svg>